<svg fill="none" height="100%" width="100%" viewBox="0 0 600 600" xmlns:xlink="http://www.w3.org/1999/xlink" xmlns="http://www.w3.org/2000/svg"><g id="i0"><g transform="translate(303.871,320.82)"><animateTransform repeatCount="indefinite" type="translate" attributeName="transform" dur="3s" begin="0s" calcMode="spline" values="303.871 320.82; 313.271 297.915; 337.871 301.57; 329.956 324.621; 303.871 320.82; 303.871 320.82" keyTimes="0; 0.255555; 0.5; 0.766667; 0.994444; 1" keySplines="0 0 1 1; 0 0 1 1; 0 0 1 1; 0 0 1 1; 0 0 1 1" fill="freeze" /><g transform="scale(1.667,1.667) translate(-471.523,-214.892)"><g id="i1" transform="matrix(1,0,0,1,469.045,216.173)"><g id="i2" fill="#d9e0e6"><path fill-rule="evenodd" d="" /></g><path d="M89.384,149.655C89.384,149.655,-89.383,46.384,-89.383,46.384C-96.303,42.387,-101.914,31.669,-101.914,22.441C-101.914,22.441,-101.914,-140.182,-101.914,-140.182C-101.914,-149.41,-96.303,-153.651,-89.383,-149.656C-89.383,-149.656,89.384,-46.385,89.384,-46.385C96.305,-42.389,101.914,-31.668,101.914,-22.44C101.914,-22.44,101.914,140.181,101.914,140.181C101.914,149.41,96.305,153.651,89.384,149.655Z" fill="#d9e0e6" /></g><g id="i3" transform="matrix(1,0,0,1,473.891,214.557)"><g id="i2" fill="#3e8ed0"><path fill-rule="evenodd" d="" /></g><path d="M89.493,-47.329C89.493,-47.329,-89.274,-150.6,-89.274,-150.6C-92.012,-152.182,-94.545,-152.472,-96.607,-151.676C-96.868,-151.574,-101.766,-149.045,-102.012,-148.91C-102.019,-148.906,-102.024,-148.902,-102.024,-148.902C-99.889,-149.939,-97.181,-149.745,-94.229,-148.04C-94.229,-148.04,84.538,-44.768,84.538,-44.768C91.459,-40.773,97.069,-30.052,97.069,-20.824C97.069,-20.824,97.069,141.798,97.069,141.798C97.069,147.557,94.884,151.373,91.558,152.457C91.83,152.472,92.168,152.366,92.656,152.084C92.815,151.992,98.011,149.18,98.162,149.074C100.542,147.407,102.024,143.981,102.024,139.238C102.024,139.238,102.024,-23.385,102.024,-23.385C102.024,-32.613,96.414,-43.333,89.493,-47.329Z" fill="#3e8ed0" /></g><g id="i4" transform="matrix(1,0,0,1,466.924,116.273)"><g id="i2" fill="#4d9bdb"><path fill-rule="evenodd" d="" /></g><path d="M95.057,51.628C95.057,51.628,-83.71,-51.643,-83.71,-51.643C-86.448,-53.225,-88.981,-53.516,-91.043,-52.72C-91.304,-52.618,-94.799,-50.762,-95.046,-50.626C-95.052,-50.622,-95.056,-50.618,-95.056,-50.618C-92.922,-51.655,-90.214,-51.461,-87.261,-49.757C-87.261,-49.757,91.505,53.516,91.505,53.516C91.505,53.516,95.057,51.628,95.057,51.628Z" fill="#4d9bdb" /></g><g id="i5" transform="matrix(1,0,0,1,472.139,215.835)"><g id="i2" fill="#ffffff"><path fill-rule="evenodd" d="" /></g><path d="M86.892,-46.347C86.892,-46.347,-91.875,-149.618,-91.875,-149.618C-94.712,-151.258,-97.322,-151.491,-99.422,-150.583C-97.629,-150.868,-95.571,-150.434,-93.379,-149.168C-93.379,-149.168,85.388,-45.896,85.388,-45.896C92.309,-41.9,97.919,-31.18,97.919,-21.952C97.919,-21.952,97.919,140.67,97.919,140.67C97.919,146.113,95.958,149.803,92.936,151.109C96.802,150.495,99.423,146.524,99.423,140.219C99.423,140.219,99.423,-22.403,99.423,-22.403C99.423,-31.631,93.813,-42.351,86.892,-46.347Z" fill="#ffffff" /></g><g id="i6" transform="matrix(1,0,0,1,469.045,225.074)"><g id="i2" fill="#383838"><path fill-rule="evenodd" d="" /></g><path d="M-94.876,-134.624C-94.876,-134.624,-94.876,13.538,-94.876,13.538C-94.876,20.776,-91.432,27.85,-85.862,31.39C-85.862,31.39,90.997,133.546,90.997,133.546C91.062,133.584,91.163,133.642,91.29,133.714C92.888,134.624,94.876,133.472,94.876,131.633C94.876,131.633,94.876,-25.007,94.876,-25.007C94.876,-25.007,-94.876,-134.624,-94.876,-134.624Z" fill="#383838" /></g><g id="i7" transform="matrix(1,0,0,1,468.972,225.004)"><g id="i2" fill="#000000"><path fill-rule="evenodd" d="" /></g><path d="M94.697,132.452C94.571,132.38,94.469,132.322,94.404,132.284C94.404,132.284,-82.455,30.127,-82.455,30.127C-88.025,26.587,-91.47,19.513,-91.47,12.275C-91.47,12.275,-91.47,-132.629,-91.47,-132.629C-91.47,-132.629,-94.803,-134.555,-94.803,-134.555C-94.803,-134.555,-94.803,13.609,-94.803,13.609C-94.803,20.848,-91.358,27.92,-85.788,31.46C-85.788,31.46,91.071,133.617,91.071,133.617C91.136,133.655,91.237,133.712,91.364,133.784C92.715,134.554,94.331,133.842,94.803,132.495C94.768,132.476,94.731,132.472,94.697,132.452Z" fill="#000000" /></g><g id="i8" transform="matrix(1,0,0,1,557.415,184.267)"><g id="i2" fill="#008cff"><path fill-rule="evenodd" d="" /></g><path d="M-3.448,-1.991C-3.448,0.195,-1.905,2.858,0,3.958C1.905,5.057,3.448,4.177,3.448,1.991C3.448,-0.195,1.905,-2.858,0,-3.957C-1.905,-5.057,-3.448,-4.177,-3.448,-1.991Z" fill="#008cff" /></g><g id="i9" transform="matrix(1,0,0,1,548.52,179.1)"><g id="i2" fill="#46a1ec"><path fill-rule="evenodd" d="" /></g><path d="M-3.448,-1.991C-3.448,0.195,-1.905,2.858,0,3.958C1.905,5.057,3.448,4.177,3.448,1.991C3.448,-0.194,1.905,-2.858,0,-3.957C-1.905,-5.057,-3.448,-4.177,-3.448,-1.991Z" fill="#46a1ec" /></g><g id="i10" transform="matrix(1,0,0,1,539.624,173.932)"><g id="i2" fill="#2d699a"><path fill-rule="evenodd" d="" /></g><path d="M-3.448,-1.991C-3.448,0.195,-1.905,2.858,0,3.958C1.905,5.057,3.448,4.177,3.448,1.991C3.448,-0.194,1.905,-2.858,0,-3.957C-1.905,-5.057,-3.448,-4.177,-3.448,-1.991Z" fill="#2d699a" /></g><g id="i2" transform="matrix(1,0,0,1,516.36,184.475)"><g id="i2" fill="#a1adb7"><path fill-rule="evenodd" d="" /></g><path d="M-25.546,-17.473C-25.546,-17.473,-38.518,-24.962,-38.518,-24.962C-39.829,-25.718,-40.891,-25.113,-40.891,-23.609C-40.891,-22.105,-39.829,-20.273,-38.518,-19.516C-38.518,-19.516,-25.546,-12.027,-25.546,-12.027C-24.236,-11.271,-23.173,-11.876,-23.173,-13.38C-23.173,-14.884,-24.236,-16.716,-25.546,-17.473Z" fill="#a1adb7" /><path d="M-4.191,-5.143C-4.191,-5.143,-17.163,-12.632,-17.163,-12.632C-18.473,-13.389,-19.536,-12.783,-19.536,-11.279C-19.536,-9.776,-18.473,-7.943,-17.163,-7.187C-17.163,-7.187,-4.191,0.303,-4.191,0.303C-2.88,1.059,-1.818,0.454,-1.818,-1.05C-1.818,-2.554,-2.88,-4.387,-4.191,-5.143Z" fill="#a1adb7" /><path d="M17.164,7.186C17.164,7.186,4.193,-0.303,4.193,-0.303C2.882,-1.059,1.82,-0.454,1.82,1.05C1.82,2.554,2.882,4.386,4.193,5.143C4.193,5.143,17.164,12.632,17.164,12.632C18.474,13.389,19.537,12.783,19.537,11.279C19.537,9.775,18.474,7.943,17.164,7.186Z" fill="#a1adb7" /><path d="M38.52,19.516C38.52,19.516,25.547,12.027,25.547,12.027C24.237,11.27,23.174,11.876,23.174,13.38C23.174,14.884,24.237,16.715,25.547,17.472C25.547,17.472,38.52,24.961,38.52,24.961C39.831,25.718,40.891,25.113,40.891,23.609C40.891,22.105,39.831,20.273,38.52,19.516Z" fill="#a1adb7" /></g></g></g></g><g id="i11"><g transform="translate(197.851,211.963)"><animateTransform repeatCount="indefinite" type="translate" attributeName="transform" dur="3s" begin="0s" calcMode="spline" values="197.851 211.963; 229.851 230.963; 197.851 211.963; 197.851 211.963" keyTimes="0; 0.5; 0.994444; 1" keySplines="0.333 0 0.667 1; 0.333 0 0.667 1; 0 0 1 1" fill="freeze" /><g transform="scale(1.667,1.667) translate(-381.511,-168.778)"><g id="i12" transform="matrix(1,0,0,1,442.397,203.752)"><path fill="#8746ff" d="M-3.052,-26.046C-3.052,-26.046,-3.052,29.778,-3.052,29.778C-3.052,29.778,3.052,26.204,3.052,26.204C3.052,26.204,3.052,-29.779,3.052,-29.779C3.052,-29.779,-3.052,-26.046,-3.052,-26.046Z" /></g><g id="i13" transform="matrix(1,0,0,1,378.469,170.616)"><path fill="#3e8ed0" d="M60.898,7.09C60.898,7.09,60.898,62.915,60.898,62.915C60.898,62.915,-60.898,-6.931,-60.898,-6.931C-60.898,-6.931,-60.898,-62.914,-60.898,-62.914C-60.898,-62.914,60.898,7.09,60.898,7.09Z" /></g><g id="i14" transform="matrix(1,0,0,1,381.511,140.866)"><path fill="#a1adb7" d="M-63.94,-33.164C-63.94,-33.164,57.856,36.841,57.856,36.841C57.856,36.841,63.939,33.108,63.939,33.108C63.939,33.108,-57.897,-36.841,-57.897,-36.841C-57.897,-36.841,-63.94,-33.164,-63.94,-33.164Z" /></g><g id="i15" transform="matrix(1,0,0,1,381.511,142.704)"><g id="i2" fill="#ffffff"><path fill-rule="evenodd" d="" /></g><path d="M-63.94,-35.002C-63.94,-35.002,57.856,35.003,57.856,35.003C57.856,35.003,63.939,31.27,63.939,31.27C63.939,31.27,57.839,34.153,57.839,34.153C57.839,34.153,-63.94,-35.002,-63.94,-35.002Z" fill="#ffffff" /></g><g id="i16" transform="matrix(1,0,0,1,402.31,201.172)"><path fill="#ffffff" d="M19.22,12.111C19.22,12.111,19.22,9.741,19.22,9.741C19.22,9.741,-19.22,-12.111,-19.22,-12.111C-19.22,-12.111,-19.22,-9.741,-19.22,-9.741C-19.22,-9.741,19.22,12.111,19.22,12.111Z" /></g><g id="i17" transform="matrix(1,0,0,1,398.75,164.641)"><path fill="#ffffff" d="M-32.306,-19.667C-32.306,-19.667,-32.306,-17.297,-32.306,-17.297C-32.306,-17.297,32.306,19.667,32.306,19.667C32.306,19.667,32.306,17.296,32.306,17.296C32.306,17.296,-32.306,-19.667,-32.306,-19.667Z" /></g><g id="i18" transform="matrix(1,0,0,1,377.818,172.428)"><path fill="#ffffff" d="M11.375,5.382C11.375,5.382,-11.375,-7.753,-11.375,-7.753C-11.375,-7.753,-11.375,-5.383,-11.375,-5.383C-11.375,-5.383,11.375,7.753,11.375,7.753C11.375,7.753,11.375,5.382,11.375,5.382Z" /></g><g id="i19" transform="matrix(1,0,0,1,409.288,200.277)"><path fill="#ffffff" d="M-4.698,-3.727C-4.698,-3.727,-4.698,-1.357,-4.698,-1.357C-4.698,-1.357,4.698,3.728,4.698,3.728C4.698,3.728,4.698,1.357,4.698,1.357C4.698,1.357,-4.698,-3.727,-4.698,-3.727Z" /></g><g id="i20" transform="matrix(1,0,0,1,384.787,166.601)"><path fill="#ffffff" d="M18.344,9.406C18.344,9.406,-18.344,-11.776,-18.344,-11.776C-18.344,-11.776,-18.344,-9.406,-18.344,-9.406C-18.344,-9.406,18.344,11.776,18.344,11.776C18.344,11.776,18.344,9.406,18.344,9.406Z" /></g><g id="i21" transform="matrix(1,0,0,1,373.162,164.814)"><path fill="#ffffff" d="M6.719,2.694C6.719,2.694,-6.719,-5.064,-6.719,-5.064C-6.719,-5.064,-6.719,-2.693,-6.719,-2.693C-6.719,-2.693,6.719,5.064,6.719,5.064C6.719,5.064,6.719,2.694,6.719,2.694Z" /></g><g id="i22" transform="matrix(1,0,0,1,389.36,188.942)"><path fill="#ffffff" d="M-12.895,-6.26C-12.895,-6.26,12.896,8.631,12.896,8.631C12.896,8.631,12.896,6.26,12.896,6.26C12.896,6.26,-12.895,-8.631,-12.895,-8.631C-12.895,-8.631,-12.895,-6.26,-12.895,-6.26Z" /></g><g id="i23" transform="matrix(1,0,0,1,400.32,180.323)"><path fill="#ffffff" d="M-18.105,-11.467C-18.105,-11.467,-18.105,-9.097,-18.105,-9.097C-18.105,-9.097,18.105,11.468,18.105,11.468C18.105,11.468,18.105,9.098,18.105,9.098C18.105,9.098,-18.105,-11.467,-18.105,-11.467Z" /></g><g id="i24" transform="matrix(1,0,0,1,400.579,185.569)"><path fill="#ffffff" d="M-9.052,-6.411C-9.052,-6.411,-9.052,-4.041,-9.052,-4.041C-9.052,-4.041,9.052,6.412,9.052,6.412C9.052,6.412,9.052,4.042,9.052,4.042C9.052,4.042,-9.052,-6.411,-9.052,-6.411Z" /></g><g id="i25" transform="matrix(1,0,0,1,370.287,177.93)"><path fill="#ffffff" d="M3.844,1.033C3.844,1.033,-3.844,-3.404,-3.844,-3.404C-3.844,-3.404,-3.844,-1.035,-3.844,-1.035C-3.844,-1.035,3.844,3.404,3.844,3.404C3.844,3.404,3.844,1.033,3.844,1.033Z" /></g><g id="i1" transform="matrix(1,0,0,1,418.261,185.756)"><path fill="#ffffff" d="M-12.796,-6.032C-12.796,-6.032,12.796,8.402,12.796,8.402C12.796,8.402,12.796,6.032,12.796,6.032C12.796,6.032,-12.796,-8.402,-12.796,-8.402C-12.796,-8.402,-12.796,-6.032,-12.796,-6.032Z" /></g><g id="i3" transform="matrix(1,0,0,1,425.908,194.926)"><path fill="#ffffff" d="M-5.149,-1.788C-5.149,-1.788,5.149,4.158,5.149,4.158C5.149,4.158,5.149,1.788,5.149,1.788C5.149,1.788,-5.149,-4.158,-5.149,-4.158C-5.149,-4.158,-5.149,-1.788,-5.149,-1.788Z" /></g><g id="i4" transform="matrix(1,0,0,1,398.75,169.566)"><path fill="#ffffff" d="M-32.306,-17.297C-32.306,-17.297,32.306,19.667,32.306,19.667C32.306,19.667,32.306,17.296,32.306,17.296C32.306,17.296,-32.306,-19.667,-32.306,-19.667C-32.306,-19.667,-32.306,-17.297,-32.306,-17.297Z" /></g><g id="i5" transform="matrix(1,0,0,1,421.511,197.483)"><path fill="#ffffff" d="M-9.546,-4.156C-9.546,-4.156,9.546,6.526,9.546,6.526C9.546,6.526,9.546,4.156,9.546,4.156C9.546,4.156,-9.546,-6.526,-9.546,-6.526C-9.546,-6.526,-9.546,-4.156,-9.546,-4.156Z" /></g><g id="i6" transform="matrix(1,0,0,1,373.599,184.767)"><path fill="#ffffff" d="M7.157,2.947C7.157,2.947,-7.156,-5.317,-7.156,-5.317C-7.156,-5.317,-7.156,-2.946,-7.156,-2.946C-7.156,-2.946,7.157,5.318,7.157,5.318C7.157,5.318,7.157,2.947,7.157,2.947Z" /></g><g id="i7" transform="matrix(1,0,0,1,427.459,215.522)"><path fill="#ffffff" d="M-3.597,-0.891C-3.597,-0.891,3.597,3.262,3.597,3.262C3.597,3.262,3.597,0.892,3.597,0.892C3.597,0.892,-3.597,-3.261,-3.597,-3.261C-3.597,-3.261,-3.597,-0.891,-3.597,-0.891Z" /></g><g id="i8" transform="matrix(1,0,0,1,423.689,208.42)"><path fill="#ffffff" d="M-7.367,-3.069C-7.367,-3.069,7.367,5.438,7.367,5.438C7.367,5.438,7.367,3.068,7.367,3.068C7.367,3.068,-7.367,-5.439,-7.367,-5.439C-7.367,-5.439,-7.367,-3.069,-7.367,-3.069Z" /></g><g id="i9" transform="matrix(1,0,0,1,398.75,189.267)"><path fill="#ffffff" d="M-32.306,-17.297C-32.306,-17.297,32.306,19.667,32.306,19.667C32.306,19.667,32.306,17.296,32.306,17.296C32.306,17.296,-32.306,-19.667,-32.306,-19.667C-32.306,-19.667,-32.306,-17.297,-32.306,-17.297Z" /></g><g id="i10" transform="matrix(1,0,0,1,342.322,150.716)"><g id="i2" fill="#8746ff"><path fill-rule="evenodd" d="" /></g><path d="M10.621,-15.116C10.621,-15.116,-10.621,-27.404,-10.621,-27.404C-14.335,-29.548,-17.345,-27.272,-17.345,-22.321C-17.345,-22.321,-17.345,2.267,-17.345,2.267C-17.345,7.219,-14.335,12.971,-10.621,15.115C-10.621,15.115,10.621,27.403,10.621,27.403C14.335,29.548,17.345,27.272,17.345,22.32C17.345,22.32,17.345,-2.268,17.345,-2.268C17.345,-7.22,14.335,-12.972,10.621,-15.116Z" fill="#8746ff" /></g><g id="i2" transform="matrix(1,0,0,1,341.906,151.072)"><g id="i2" fill="#462f6f"><path fill-rule="evenodd" d="" /></g><path d="M13.662,25.048C13.662,25.048,-7.58,12.76,-7.58,12.76C-11.294,10.616,-14.304,4.864,-14.304,-0.088C-14.304,-0.088,-14.304,-24.675,-14.304,-24.675C-14.304,-26.242,-14.002,-27.537,-13.473,-28.513C-15.534,-28.171,-16.929,-26.045,-16.929,-22.675C-16.929,-22.675,-16.929,1.912,-16.929,1.912C-16.929,6.864,-13.919,12.616,-10.205,14.76C-10.205,14.76,11.037,27.048,11.037,27.048C13.577,28.514,15.786,27.912,16.93,25.802C15.963,25.963,14.849,25.733,13.662,25.048Z" fill="#462f6f" /></g></g></g></g><g id="i26"><g transform="translate(107.924,191.628)"><animateTransform repeatCount="indefinite" type="translate" attributeName="transform" dur="3s" begin="0s" calcMode="spline" values="107.924 191.628; 114.92 193.923; 113.924 201.128; 106.701 200.224; 107.924 191.628; 107.924 191.628" keyTimes="0; 0.238888; 0.5; 0.755556; 0.994444; 1" keySplines="0 0 1 1; 0 0 1 1; 0 0 1 1; 0 0 1 1; 0 0 1 1" fill="freeze" /><g transform="scale(1.667,1.667) translate(-327.554,-156.577)"><g id="i6" transform="matrix(1,0,0,1,325.822,157.591)"><g id="i2" fill="#2d699a"><path fill-rule="evenodd" d="" /></g><path d="M10.621,-15.116C10.621,-15.116,-10.621,-27.404,-10.621,-27.404C-14.335,-29.548,-17.345,-27.272,-17.345,-22.321C-17.345,-22.321,-17.345,2.267,-17.345,2.267C-17.345,7.219,-14.335,12.971,-10.621,15.115C-10.621,15.115,10.621,27.403,10.621,27.403C14.335,29.548,17.345,27.272,17.345,22.32C17.345,22.32,17.345,-2.268,17.345,-2.268C17.345,-7.22,14.335,-12.972,10.621,-15.116Z" fill="#2d699a" /></g><g id="i7" transform="matrix(1,0,0,1,328.693,156.081)"><g id="i2" fill="#315b7d"><path fill-rule="evenodd" d="" /></g><path d="M11.216,-15.638C11.216,-15.638,-10.026,-27.926,-10.026,-27.926C-11.617,-28.844,-13.077,-28.946,-14.228,-28.379C-14.228,-28.379,-14.263,-28.419,-14.263,-28.419C-14.263,-28.419,-17.94,-26.263,-17.94,-26.263C-17.94,-26.263,-17.926,-26.216,-17.926,-26.216C-16.742,-26.921,-15.192,-26.875,-13.492,-25.893C-13.492,-25.893,7.75,-13.607,7.75,-13.607C11.464,-11.462,14.474,-5.71,14.474,-0.758C14.474,-0.758,14.474,23.83,14.474,23.83C14.474,26.236,13.76,28.004,12.603,28.946C12.603,28.946,14.651,27.596,14.651,27.596C16.373,26.609,17.94,25.073,17.94,21.798C17.94,21.798,17.94,-2.79,17.94,-2.79C17.94,-7.742,14.93,-13.494,11.216,-15.638Z" fill="#315b7d" /></g><g id="i8" transform="matrix(1,0,0,1,327.196,157.161)"><g id="i2" fill="#ffffff"><path fill-rule="evenodd" d="" /></g><path d="M9.624,-15.001C9.624,-15.001,-11.618,-27.289,-11.618,-27.289C-13.463,-28.354,-15.133,-28.326,-16.348,-27.424C-15.245,-27.842,-13.897,-27.691,-12.436,-26.848C-12.436,-26.848,8.806,-14.561,8.806,-14.561C12.52,-12.416,15.53,-6.664,15.53,-1.712C15.53,-1.712,15.53,22.875,15.53,22.875C15.53,25.368,14.767,27.18,13.536,28.094C15.236,27.449,16.349,25.439,16.349,22.435C16.349,22.435,16.349,-2.152,16.349,-2.152C16.349,-7.105,13.338,-12.856,9.624,-15.001Z" fill="#ffffff" /></g><g id="i9" transform="matrix(1,0,0,1,325.629,157.698)"><g id="i2" fill="#ffffff"><path fill-rule="evenodd" d="" /></g><path d="M-11.519,-20.726C-11.519,-20.726,-11.519,7.421,-11.519,7.421C-11.519,7.421,11.518,20.726,11.518,20.726C11.518,20.726,11.518,-7.42,11.518,-7.42C11.518,-7.42,-11.519,-20.726,-11.519,-20.726Z" fill="#ffffff" /><path d="M10.042,18.169C10.042,18.169,-10.042,6.568,-10.042,6.568C-10.042,6.568,-10.042,-18.167,-10.042,-18.167C-10.042,-18.167,10.042,-6.568,10.042,-6.568C10.042,-6.568,10.042,18.169,10.042,18.169Z" fill="#ffffff" /></g><g id="i10" transform="matrix(1,0,0,1,329.177,153.602)"><g id="i2" fill="#ffffff"><path fill-rule="evenodd" d="" /></g><path d="M2.91,1.68C2.91,3.524,1.607,4.267,0,3.339C-1.607,2.411,-2.91,0.164,-2.91,-1.68C-2.91,-3.524,-1.607,-4.267,0,-3.339C1.607,-2.411,2.91,-0.164,2.91,1.68Z" fill="#ffffff" /></g><g id="i2" transform="matrix(1,0,0,1,325.587,163.112)"><g id="i2" fill="#ffffff"><path fill-rule="evenodd" d="" /></g><path d="M-10.704,-5.471C-10.704,-5.471,-4.706,-13.222,-4.706,-13.222C-4.706,-13.222,1.384,2.188,1.384,2.188C1.384,2.188,5.814,-1.411,5.814,-1.411C5.814,-1.411,10.704,11.877,10.704,11.877C10.704,11.877,10.611,13.222,10.611,13.222C10.611,13.222,-10.612,1.872,-10.612,1.872C-10.612,1.872,-10.704,-5.471,-10.704,-5.471Z" fill="#ffffff" /></g></g></g></g><g id="i27"><g transform="translate(439.132,389.754)"><animateTransform repeatCount="indefinite" type="translate" attributeName="transform" dur="3s" begin="0s" calcMode="spline" values="439.132 389.754; 423.132 373.754; 439.132 389.754; 439.132 389.754" keyTimes="0; 0.5; 0.994444; 1" keySplines="0.333 0 0.544 0.334; 0.168 0.239 0.667 1; 0 0 1 1" fill="freeze" /><g transform="scale(1.667,1.667) translate(-526.279,-275.453)"><g id="i16" transform="matrix(1,0,0,1,592.915,313.724)"><path fill="#8746ff" d="M-3.053,-32.221C-3.053,-32.221,-3.053,35.953,-3.053,35.953C-3.053,35.953,3.053,32.379,3.053,32.379C3.053,32.379,3.053,-35.953,3.053,-35.953C3.053,-35.953,-3.053,-32.221,-3.053,-32.221Z" /></g><g id="i17" transform="matrix(1,0,0,1,523.238,277.291)"><path fill="#3c81b9" d="M66.648,4.211C66.648,4.211,66.648,72.386,66.648,72.386C66.648,72.386,-66.648,-4.053,-66.648,-4.053C-66.648,-4.053,-66.648,-72.386,-66.648,-72.386C-66.648,-72.386,66.648,4.211,66.648,4.211Z" /></g><g id="i18" transform="matrix(1,0,0,1,526.279,241.365)"><path fill="#a1adb7" d="M-69.689,-36.46C-69.689,-36.46,63.607,40.137,63.607,40.137C63.607,40.137,69.69,36.404,69.69,36.404C69.69,36.404,-63.646,-40.137,-63.646,-40.137C-63.646,-40.137,-69.689,-36.46,-69.689,-36.46Z" /></g><g id="i19" transform="matrix(1,0,0,1,526.279,243.204)"><g id="i2" fill="#ffffff"><path fill-rule="evenodd" d="" /></g><path d="M-69.69,-38.298C-69.69,-38.298,63.606,38.299,63.606,38.299C63.606,38.299,69.689,34.566,69.689,34.566C69.689,34.566,63.589,37.449,63.589,37.449C63.589,37.449,-69.69,-38.298,-69.69,-38.298Z" fill="#ffffff" /></g><g id="i20" transform="matrix(1,0,0,1,560.875,299.279)"><g id="i2" fill="#8746ff"><path fill-rule="evenodd" d="" /></g><path d="M20.918,12.076C20.918,25.332,11.552,30.672,0,24.002C-11.553,17.332,-20.917,1.18,-20.917,-12.076C-20.917,-25.333,-11.553,-30.672,0,-24.002C11.552,-17.333,20.918,-1.18,20.918,12.076Z" fill="#8746ff" /></g><g id="i21" transform="matrix(1,0,0,1,559.106,300.798)"><g id="i2" fill="#462f6f"><path fill-rule="evenodd" d="" /></g><path d="M3.77,20.732C-7.783,14.062,-17.148,-2.09,-17.148,-15.346C-17.148,-20.292,-15.842,-24.134,-13.608,-26.664C-17.045,-24.372,-19.148,-19.873,-19.148,-13.596C-19.148,-0.34,-9.783,15.812,1.77,22.482C9.012,26.664,15.393,26.124,19.148,21.874C15.326,24.422,9.852,24.244,3.77,20.732Z" fill="#462f6f" /></g><g id="i22" transform="matrix(1,0,0,1,496.298,272.641)"><g id="i2" fill="#8746ff"><path fill-rule="evenodd" d="" /></g><path d="M5.87,-30.298C5.87,-30.298,1.372,-32.894,1.372,-32.894C1.372,-32.894,1.372,17.789,1.372,17.789C1.372,17.789,5.87,20.386,5.87,20.386C5.87,20.386,5.87,-30.298,5.87,-30.298Z" fill="#8746ff" /><path d="M12.346,-32.84C12.346,-32.84,7.849,-35.436,7.849,-35.436C7.849,-35.436,7.849,21.473,7.849,21.473C7.849,21.473,12.346,24.07,12.346,24.07C12.346,24.07,12.346,-32.84,12.346,-32.84Z" fill="#8746ff" /><path d="M19.014,-21.39C19.014,-21.39,14.517,-23.987,14.517,-23.987C14.517,-23.987,14.517,25.282,14.517,25.282C14.517,25.282,19.014,27.879,19.014,27.879C19.014,27.879,19.014,-21.39,19.014,-21.39Z" fill="#8746ff" /><path d="M-11.963,-17.821C-11.963,-17.821,-11.963,9.947,-11.963,9.947C-11.963,9.947,-7.466,12.543,-7.466,12.543C-7.466,12.543,-7.466,-15.224,-7.466,-15.224C-7.466,-15.224,-11.963,-17.821,-11.963,-17.821Z" fill="#8746ff" /><path d="M-0.798,-25.539C-0.798,-25.539,-5.295,-28.136,-5.295,-28.136C-5.295,-28.136,-5.295,13.757,-5.295,13.757C-5.295,13.757,-0.798,16.354,-0.798,16.354C-0.798,16.354,-0.798,-25.539,-0.798,-25.539Z" fill="#8746ff" /><path d="M25.555,-7.319C25.555,-7.319,21.058,-9.916,21.058,-9.916C21.058,-9.916,21.058,29.093,21.058,29.093C21.058,29.093,25.555,31.69,25.555,31.69C25.555,31.69,25.555,-7.319,25.555,-7.319Z" fill="#8746ff" /><path d="M31.968,8.766C31.968,8.766,27.471,6.169,27.471,6.169C27.471,6.169,27.471,32.839,27.471,32.839C27.471,32.839,31.968,35.436,31.968,35.436C31.968,35.436,31.968,8.766,31.968,8.766Z" fill="#8746ff" /><path d="M-14.135,-22.634C-14.135,-22.634,-18.633,-25.23,-18.633,-25.23C-18.633,-25.23,-18.633,5.926,-18.633,5.926C-18.633,5.926,-14.135,8.523,-14.135,8.523C-14.135,8.523,-14.135,-22.634,-14.135,-22.634Z" fill="#8746ff" /><path d="M-31.968,-20.794C-31.968,-20.794,-31.968,-1.917,-31.968,-1.917C-31.968,-1.917,-27.471,0.68,-27.471,0.68C-27.471,0.68,-27.471,-18.198,-27.471,-18.198C-27.471,-18.198,-31.968,-20.794,-31.968,-20.794Z" fill="#8746ff" /><path d="M-20.803,-28.198C-20.803,-28.198,-25.3,-30.795,-25.3,-30.795C-25.3,-30.795,-25.3,1.894,-25.3,1.894C-25.3,1.894,-20.803,4.49,-20.803,4.49C-20.803,4.49,-20.803,-28.198,-20.803,-28.198Z" fill="#8746ff" /></g><g id="i23" transform="matrix(1,0,0,1,496.298,276.86)"><path d="M5.869,-14.622C5.869,-14.622,1.371,-17.219,1.371,-17.219C1.371,-17.219,1.371,13.57,1.371,13.57C1.371,13.57,5.869,16.167,5.869,16.167C5.869,16.167,5.869,-14.622,5.869,-14.622Z" fill="#a8cef0"><animate repeatCount="indefinite" attributeName="d" dur="3s" begin="0s" calcMode="spline" values="M5.869,-14.622C5.869,-14.622,1.371,-17.219,1.371,-17.219C1.371,-17.219,1.371,13.57,1.371,13.57C1.371,13.57,5.869,16.167,5.869,16.167C5.869,16.167,5.869,-14.622,5.869,-14.622Z; M5.889,-24.447C5.889,-24.447,1.391,-27.044,1.391,-27.044C1.391,-27.044,1.371,13.57,1.371,13.57C1.371,13.57,5.869,16.167,5.869,16.167C5.869,16.167,5.889,-24.447,5.889,-24.447Z; M5.869,-14.622C5.869,-14.622,1.371,-17.219,1.371,-17.219C1.371,-17.219,1.371,13.57,1.371,13.57C1.371,13.57,5.869,16.167,5.869,16.167C5.869,16.167,5.869,-14.622,5.869,-14.622Z; M5.869,-14.622C5.869,-14.622,1.371,-17.219,1.371,-17.219C1.371,-17.219,1.371,13.57,1.371,13.57C1.371,13.57,5.869,16.167,5.869,16.167C5.869,16.167,5.869,-14.622,5.869,-14.622Z" keyTimes="0; 0.472222; 0.994444; 1" keySplines="0.333 0 0.667 1; 0.333 0 0.667 1; 0 0 1 1" fill="freeze" /></path><path d="M12.346,-28.62C12.346,-28.62,7.849,-31.217,7.849,-31.217C7.849,-31.217,7.849,17.254,7.849,17.254C7.849,17.254,12.346,19.851,12.346,19.851C12.346,19.851,12.346,-28.62,12.346,-28.62Z" fill="#a8cef0"><animate repeatCount="indefinite" attributeName="d" dur="3s" begin="0s" calcMode="spline" values="M12.346,-28.62C12.346,-28.62,7.849,-31.217,7.849,-31.217C7.849,-31.217,7.849,17.254,7.849,17.254C7.849,17.254,12.346,19.851,12.346,19.851C12.346,19.851,12.346,-28.62,12.346,-28.62Z; M12.318,-15.495C12.318,-15.495,7.821,-18.092,7.821,-18.092C7.821,-18.092,7.849,17.254,7.849,17.254C7.849,17.254,12.346,19.851,12.346,19.851C12.346,19.851,12.318,-15.495,12.318,-15.495Z; M12.346,-28.62C12.346,-28.62,7.849,-31.217,7.849,-31.217C7.849,-31.217,7.849,17.254,7.849,17.254C7.849,17.254,12.346,19.851,12.346,19.851C12.346,19.851,12.346,-28.62,12.346,-28.62Z; M12.346,-28.62C12.346,-28.62,7.849,-31.217,7.849,-31.217C7.849,-31.217,7.849,17.254,7.849,17.254C7.849,17.254,12.346,19.851,12.346,19.851C12.346,19.851,12.346,-28.62,12.346,-28.62Z" keyTimes="0; 0.594444; 0.994444; 1" keySplines="0.333 0 0.667 1; 0.333 0 0.667 1; 0 0 1 1" fill="freeze" /></path><path d="M19.014,-16.612C19.014,-16.612,14.517,-19.209,14.517,-19.209C14.517,-19.209,14.517,21.064,14.517,21.064C14.517,21.064,19.014,23.66,19.014,23.66C19.014,23.66,19.014,-16.612,19.014,-16.612Z" fill="#a8cef0"><animate repeatCount="indefinite" attributeName="d" dur="3s" begin="0s" calcMode="spline" values="M19.014,-16.612C19.014,-16.612,14.517,-19.209,14.517,-19.209C14.517,-19.209,14.517,21.064,14.517,21.064C14.517,21.064,19.014,23.66,19.014,23.66C19.014,23.66,19.014,-16.612,19.014,-16.612Z; M18.979,-21.937C18.979,-21.937,14.482,-24.534,14.482,-24.534C14.482,-24.534,14.517,21.064,14.517,21.064C14.517,21.064,19.014,23.66,19.014,23.66C19.014,23.66,18.979,-21.937,18.979,-21.937Z; M19.014,-16.612C19.014,-16.612,14.517,-19.209,14.517,-19.209C14.517,-19.209,14.517,21.064,14.517,21.064C14.517,21.064,19.014,23.66,19.014,23.66C19.014,23.66,19.014,-16.612,19.014,-16.612Z; M19.014,-16.612C19.014,-16.612,14.517,-19.209,14.517,-19.209C14.517,-19.209,14.517,21.064,14.517,21.064C14.517,21.064,19.014,23.66,19.014,23.66C19.014,23.66,19.014,-16.612,19.014,-16.612Z" keyTimes="0; 0.422222; 0.994444; 1" keySplines="0.333 0 0.667 1; 0.333 0 0.667 1; 0 0 1 1" fill="freeze" /></path><path d="M-11.964,-15.293C-11.964,-15.293,-11.964,5.728,-11.964,5.728C-11.964,5.728,-7.467,8.324,-7.467,8.324C-7.467,8.324,-7.467,-12.696,-7.467,-12.696C-7.467,-12.696,-11.964,-15.293,-11.964,-15.293Z" fill="#a8cef0"><animate repeatCount="indefinite" attributeName="d" dur="3s" begin="0s" calcMode="spline" values="M-11.964,-15.293C-11.964,-15.293,-11.964,5.728,-11.964,5.728C-11.964,5.728,-7.467,8.324,-7.467,8.324C-7.467,8.324,-7.467,-12.696,-7.467,-12.696C-7.467,-12.696,-11.964,-15.293,-11.964,-15.293Z; M-11.93,-19.343C-11.93,-19.343,-11.964,5.728,-11.964,5.728C-11.964,5.728,-7.467,8.324,-7.467,8.324C-7.467,8.324,-7.433,-16.746,-7.433,-16.746C-7.433,-16.746,-11.93,-19.343,-11.93,-19.343Z; M-11.964,-15.293C-11.964,-15.293,-11.964,5.728,-11.964,5.728C-11.964,5.728,-7.467,8.324,-7.467,8.324C-7.467,8.324,-7.467,-12.696,-7.467,-12.696C-7.467,-12.696,-11.964,-15.293,-11.964,-15.293Z; M-11.964,-15.293C-11.964,-15.293,-11.964,5.728,-11.964,5.728C-11.964,5.728,-7.467,8.324,-7.467,8.324C-7.467,8.324,-7.467,-12.696,-7.467,-12.696C-7.467,-12.696,-11.964,-15.293,-11.964,-15.293Z" keyTimes="0; 0.65; 0.994444; 1" keySplines="0.333 0 0.667 1; 0.333 0 0.667 1; 0 0 1 1" fill="freeze" /></path><path d="M-0.798,-16.117C-0.798,-16.117,-5.296,-18.714,-5.296,-18.714C-5.296,-18.714,-5.296,9.538,-5.296,9.538C-5.296,9.538,-0.798,12.135,-0.798,12.135C-0.798,12.135,-0.798,-16.117,-0.798,-16.117Z" fill="#a8cef0"><animate repeatCount="indefinite" attributeName="d" dur="3s" begin="0s" calcMode="spline" values="M-0.798,-16.117C-0.798,-16.117,-5.296,-18.714,-5.296,-18.714C-5.296,-18.714,-5.296,9.538,-5.296,9.538C-5.296,9.538,-0.798,12.135,-0.798,12.135C-0.798,12.135,-0.798,-16.117,-0.798,-16.117Z; M-0.772,-5.017C-0.772,-5.017,-5.269,-7.614,-5.269,-7.614C-5.269,-7.614,-5.296,9.538,-5.296,9.538C-5.296,9.538,-0.798,12.135,-0.798,12.135C-0.798,12.135,-0.772,-5.017,-0.772,-5.017Z; M-0.798,-16.117C-0.798,-16.117,-5.296,-18.714,-5.296,-18.714C-5.296,-18.714,-5.296,9.538,-5.296,9.538C-5.296,9.538,-0.798,12.135,-0.798,12.135C-0.798,12.135,-0.798,-16.117,-0.798,-16.117Z; M-0.798,-16.117C-0.798,-16.117,-5.296,-18.714,-5.296,-18.714C-5.296,-18.714,-5.296,9.538,-5.296,9.538C-5.296,9.538,-0.798,12.135,-0.798,12.135C-0.798,12.135,-0.798,-16.117,-0.798,-16.117Z" keyTimes="0; 0.5; 0.994444; 1" keySplines="0.333 0 0.667 1; 0.333 0 0.667 1; 0 0 1 1" fill="freeze" /></path><path d="M-14.135,-24.304C-14.135,-24.304,-18.634,-26.9,-18.634,-26.9C-18.634,-26.9,-18.634,1.707,-18.634,1.707C-18.634,1.707,-14.135,4.304,-14.135,4.304C-14.135,4.304,-14.135,-24.304,-14.135,-24.304Z" fill="#a8cef0"><animate repeatCount="indefinite" attributeName="d" dur="3s" begin="0s" calcMode="spline" values="M-14.135,-24.304C-14.135,-24.304,-18.634,-26.9,-18.634,-26.9C-18.634,-26.9,-18.634,1.707,-18.634,1.707C-18.634,1.707,-14.135,4.304,-14.135,4.304C-14.135,4.304,-14.135,-24.304,-14.135,-24.304Z; M-14.171,-11.254C-14.171,-11.254,-18.669,-13.85,-18.669,-13.85C-18.669,-13.85,-18.634,1.707,-18.634,1.707C-18.634,1.707,-14.135,4.304,-14.135,4.304C-14.135,4.304,-14.171,-11.254,-14.171,-11.254Z; M-14.135,-24.304C-14.135,-24.304,-18.634,-26.9,-18.634,-26.9C-18.634,-26.9,-18.634,1.707,-18.634,1.707C-18.634,1.707,-14.135,4.304,-14.135,4.304C-14.135,4.304,-14.135,-24.304,-14.135,-24.304Z; M-14.135,-24.304C-14.135,-24.304,-18.634,-26.9,-18.634,-26.9C-18.634,-26.9,-18.634,1.707,-18.634,1.707C-18.634,1.707,-14.135,4.304,-14.135,4.304C-14.135,4.304,-14.135,-24.304,-14.135,-24.304Z" keyTimes="0; 0.35; 0.994444; 1" keySplines="0.333 0 0.667 1; 0.333 0 0.667 1; 0 0 1 1" fill="freeze" /></path><path d="M-31.969,-11.602C-31.969,-11.602,-31.969,-6.136,-31.969,-6.136C-31.969,-6.136,-27.471,-3.539,-27.471,-3.539C-27.471,-3.539,-27.471,-9.006,-27.471,-9.006C-27.471,-9.006,-31.969,-11.602,-31.969,-11.602Z" fill="#a8cef0"><animate repeatCount="indefinite" attributeName="d" dur="3s" begin="0s" calcMode="spline" values="M-31.969,-11.602C-31.969,-11.602,-31.969,-6.136,-31.969,-6.136C-31.969,-6.136,-27.471,-3.539,-27.471,-3.539C-27.471,-3.539,-27.471,-9.006,-27.471,-9.006C-27.471,-9.006,-31.969,-11.602,-31.969,-11.602Z; M-31.989,-20.302C-31.989,-20.302,-31.969,-6.136,-31.969,-6.136C-31.969,-6.136,-27.471,-3.539,-27.471,-3.539C-27.471,-3.539,-27.491,-17.706,-27.491,-17.706C-27.491,-17.706,-31.989,-20.302,-31.989,-20.302Z; M-31.969,-11.602C-31.969,-11.602,-31.969,-6.136,-31.969,-6.136C-31.969,-6.136,-27.471,-3.539,-27.471,-3.539C-27.471,-3.539,-27.471,-9.006,-27.471,-9.006C-27.471,-9.006,-31.969,-11.602,-31.969,-11.602Z; M-31.969,-11.602C-31.969,-11.602,-31.969,-6.136,-31.969,-6.136C-31.969,-6.136,-27.471,-3.539,-27.471,-3.539C-27.471,-3.539,-27.471,-9.006,-27.471,-9.006C-27.471,-9.006,-31.969,-11.602,-31.969,-11.602Z" keyTimes="0; 0.566666; 0.994444; 1" keySplines="0.333 0 0.667 1; 0.333 0 0.667 1; 0 0 1 1" fill="freeze" /></path><path d="M-20.803,-11.592C-20.803,-11.592,-25.301,-14.188,-25.301,-14.188C-25.301,-14.188,-25.301,-2.325,-25.301,-2.325C-25.301,-2.325,-20.803,0.272,-20.803,0.272C-20.803,0.272,-20.803,-11.592,-20.803,-11.592Z" fill="#a8cef0"><animate repeatCount="indefinite" attributeName="d" dur="3s" begin="0s" calcMode="spline" values="M-20.803,-11.592C-20.803,-11.592,-25.301,-14.188,-25.301,-14.188C-25.301,-14.188,-25.301,-2.325,-25.301,-2.325C-25.301,-2.325,-20.803,0.272,-20.803,0.272C-20.803,0.272,-20.803,-11.592,-20.803,-11.592Z; M-20.83,-21.717C-20.83,-21.717,-25.328,-24.313,-25.328,-24.313C-25.328,-24.313,-25.301,-2.325,-25.301,-2.325C-25.301,-2.325,-20.803,0.272,-20.803,0.272C-20.803,0.272,-20.83,-21.717,-20.83,-21.717Z; M-20.803,-11.592C-20.803,-11.592,-25.301,-14.188,-25.301,-14.188C-25.301,-14.188,-25.301,-2.325,-25.301,-2.325C-25.301,-2.325,-20.803,0.272,-20.803,0.272C-20.803,0.272,-20.803,-11.592,-20.803,-11.592Z; M-20.803,-11.592C-20.803,-11.592,-25.301,-14.188,-25.301,-14.188C-25.301,-14.188,-25.301,-2.325,-25.301,-2.325C-25.301,-2.325,-20.803,0.272,-20.803,0.272C-20.803,0.272,-20.803,-11.592,-20.803,-11.592Z" keyTimes="0; 0.522223; 0.994444; 1" keySplines="0.333 0 0.667 1; 0.333 0 0.667 1; 0 0 1 1" fill="freeze" /></path><path d="M25.555,-4.278C25.555,-4.278,21.058,-6.875,21.058,-6.875C21.058,-6.875,21.058,24.874,21.058,24.874C21.058,24.874,25.555,27.471,25.555,27.471C25.555,27.471,25.555,-4.278,25.555,-4.278Z" fill="#a8cef0"><animate repeatCount="indefinite" attributeName="d" dur="3s" begin="0s" calcMode="spline" values="M25.555,-4.278C25.555,-4.278,21.058,-6.875,21.058,-6.875C21.058,-6.875,21.058,24.874,21.058,24.874C21.058,24.874,25.555,27.471,25.555,27.471C25.555,27.471,25.555,-4.278,25.555,-4.278Z; M25.611,7.272C25.611,7.272,21.114,4.675,21.114,4.675C21.114,4.675,21.058,24.874,21.058,24.874C21.058,24.874,25.555,27.471,25.555,27.471C25.555,27.471,25.611,7.272,25.611,7.272Z; M25.555,-4.278C25.555,-4.278,21.058,-6.875,21.058,-6.875C21.058,-6.875,21.058,24.874,21.058,24.874C21.058,24.874,25.555,27.471,25.555,27.471C25.555,27.471,25.555,-4.278,25.555,-4.278Z; M25.555,-4.278C25.555,-4.278,21.058,-6.875,21.058,-6.875C21.058,-6.875,21.058,24.874,21.058,24.874C21.058,24.874,25.555,27.471,25.555,27.471C25.555,27.471,25.555,-4.278,25.555,-4.278Z" keyTimes="0; 0.4; 0.994444; 1" keySplines="0.333 0 0.667 1; 0.333 0 0.667 1; 0 0 1 1" fill="freeze" /></path><path d="M31.969,8.503C31.969,8.503,27.471,5.906,27.471,5.906C27.471,5.906,27.471,28.62,27.471,28.62C27.471,28.62,31.969,31.217,31.969,31.217C31.969,31.217,31.969,8.503,31.969,8.503Z" fill="#a8cef0"><animate repeatCount="indefinite" attributeName="d" dur="3s" begin="0s" calcMode="spline" values="M31.969,8.503C31.969,8.503,27.471,5.906,27.471,5.906C27.471,5.906,27.471,28.62,27.471,28.62C27.471,28.62,31.969,31.217,31.969,31.217C31.969,31.217,31.969,8.503,31.969,8.503Z; M31.987,20.053C31.987,20.053,27.49,17.456,27.49,17.456C27.49,17.456,27.471,28.62,27.471,28.62C27.471,28.62,31.969,31.217,31.969,31.217C31.969,31.217,31.987,20.053,31.987,20.053Z; M31.969,8.503C31.969,8.503,27.471,5.906,27.471,5.906C27.471,5.906,27.471,28.62,27.471,28.62C27.471,28.62,31.969,31.217,31.969,31.217C31.969,31.217,31.969,8.503,31.969,8.503Z; M31.969,8.503C31.969,8.503,27.471,5.906,27.471,5.906C27.471,5.906,27.471,28.62,27.471,28.62C27.471,28.62,31.969,31.217,31.969,31.217C31.969,31.217,31.969,8.503,31.969,8.503Z" keyTimes="0; 0.616667; 0.994444; 1" keySplines="0.333 0 0.667 1; 0.333 0 0.667 1; 0 0 1 1" fill="freeze" /></path></g><g id="i24" transform="matrix(1,0,0,1,554.048,282.241)"><g id="i2" fill="#008cff"><path fill-rule="evenodd" d="" /></g><path d="M-13.75,8.174C-13.476,-1.846,-6.193,-5.829,2.742,-0.67C7.342,1.986,11.504,6.562,14.502,11.785C14.502,11.785,17.798,10.957,17.798,10.957C14.043,4.146,8.685,-1.862,2.742,-5.293C-8.502,-11.785,-17.661,-6.653,-17.799,6.134C-17.799,6.134,-15.162,8.528,-15.162,8.528C-15.162,8.528,-13.75,8.174,-13.75,8.174Z" fill="#008cff" /></g><g id="i25" transform="matrix(1,0,0,1,551.333,309.341)"><g id="i2" fill="#008cff"><path fill-rule="evenodd" d="" /></g><path d="M13.739,12.34C11.301,12.563,8.477,11.883,5.458,10.139C-3.006,5.253,-9.993,-6.127,-10.942,-16.098C-10.942,-16.098,-14.975,-18.132,-14.975,-18.132C-14.969,-18.058,-16.323,-17.784,-16.316,-17.711C-15.15,-5.299,-5.079,8.679,5.458,14.762C9.284,16.972,11.874,18.133,14.945,17.807C15.074,17.793,16.196,17.474,16.323,17.456C16.323,17.456,13.739,12.34,13.739,12.34Z" fill="#008cff" /></g><g id="i1" transform="matrix(1,0,0,1,572.208,311.279)"><g id="i2" fill="#008cff"><path fill-rule="evenodd" d="" /></g><path d="M-2.096,-14.223C-0.095,-9.933,1.101,-5.391,1.101,-1.216C1.101,4.772,-1.338,8.704,-5.13,9.991C-5.13,9.991,-2.576,15.047,-2.576,15.047C2.118,13.432,5.131,8.538,5.131,1.11C5.131,-4.075,3.661,-9.718,1.18,-15.047C1.18,-15.047,-2.096,-14.223,-2.096,-14.223Z" fill="#008cff" /></g><g id="i3" transform="matrix(1,0,0,1,556.423,300.725)"><g id="i2" fill="#008cff"><path fill-rule="evenodd" d="" /></g><path d="M6.039,4.636C4.932,3.693,3.934,2.492,3.143,1.168C2.664,0.366,2.681,-0.504,3.146,-0.774C3.749,-1.125,4.279,-1.683,4.625,-2.424C5.133,-2.284,5.763,-2.47,5.763,-3.167C5.763,-3.877,5.448,-4.65,5.029,-5.041C4.905,-8.081,3.867,-11.204,0.371,-13.221C-0.851,-13.927,-1.773,-14.151,-2.46,-14.02C-2.62,-13.99,-4.006,-13.625,-4.142,-13.557C-5.089,-13.086,-4.217,-12.068,-4.287,-10.42C-4.706,-10.513,-5.021,-10.102,-5.021,-9.392C-5.021,-8.696,-4.391,-7.782,-3.883,-7.336C-3.537,-6.196,-3.007,-5.025,-2.404,-3.979C-1.939,-3.17,-1.922,-2.281,-2.4,-2.032C-3.191,-1.621,-4.19,-1.574,-5.297,-1.909C-5.742,-2.043,-6.151,-2.055,-6.508,-1.958C-6.609,-1.929,-7.855,-1.606,-7.946,-1.56C-8.597,-1.236,-7.856,-0.762,-7.856,0.34C-7.856,0.34,-7.856,3.474,-7.856,3.474C-7.856,4.081,-7.426,4.822,-6.897,5.127C-6.897,5.127,6.533,14.017,6.533,14.017C6.766,14.151,8.085,13.682,8.251,13.619C8.463,13.54,8.598,13.314,8.598,12.973C8.598,12.973,8.598,9.839,8.598,9.839C8.598,8.032,7.507,5.887,6.039,4.636Z" fill="#008cff" /></g><g id="i4" transform="matrix(1,0,0,1,553.146,282.499)"><g id="i2" fill="#ffffff"><path fill-rule="evenodd" d="" /></g><path d="M-13.75,8.174C-13.476,-1.846,-6.192,-5.83,2.742,-0.671C7.342,1.985,11.504,6.561,14.502,11.785C14.502,11.785,17.799,10.957,17.799,10.957C14.044,4.146,8.686,-1.862,2.742,-5.293C-8.502,-11.785,-17.661,-6.653,-17.799,6.134C-17.799,6.134,-13.75,8.174,-13.75,8.174Z" fill="#ffffff" /></g><g id="i5" transform="matrix(1,0,0,1,551.104,309.482)"><g id="i2" fill="#ffffff"><path fill-rule="evenodd" d="" /></g><path d="M13.065,12.456C10.627,12.679,7.803,11.999,4.784,10.256C-3.679,5.369,-10.667,-6.01,-11.616,-15.982C-11.616,-15.982,-15.649,-18.016,-15.649,-18.016C-14.565,-5.551,-5.816,8.759,4.784,14.878C8.771,17.181,12.495,18.016,15.649,17.572C15.649,17.572,13.065,12.456,13.065,12.456Z" fill="#ffffff" /></g><g id="i6" transform="matrix(1,0,0,1,571.305,311.536)"><g id="i2" fill="#ffffff"><path fill-rule="evenodd" d="" /></g><path d="M-2.096,-14.223C-0.096,-9.933,1.101,-5.391,1.101,-1.216C1.101,4.773,-1.339,8.704,-5.13,9.991C-5.13,9.991,-2.576,15.047,-2.576,15.047C2.117,13.432,5.13,8.539,5.13,1.11C5.13,-4.075,3.661,-9.718,1.179,-15.047C1.179,-15.047,-2.096,-14.223,-2.096,-14.223Z" fill="#ffffff" /></g><g id="i7" transform="matrix(1,0,0,1,555.891,300.276)"><g id="i2" fill="#ffffff"><path fill-rule="evenodd" d="" /></g><path d="M5.668,5.345C4.562,4.401,3.563,3.2,2.772,1.876C2.293,1.074,2.31,0.205,2.775,-0.066C3.378,-0.417,3.908,-0.975,4.254,-1.716C4.762,-1.576,5.392,-1.763,5.392,-2.46C5.392,-3.17,5.078,-3.942,4.658,-4.333C4.534,-7.373,3.496,-10.495,0,-12.513C-3.496,-14.532,-4.534,-12.607,-4.658,-9.712C-5.077,-9.805,-5.392,-9.395,-5.392,-8.685C-5.392,-7.989,-4.762,-7.075,-4.254,-6.629C-3.908,-5.489,-3.377,-4.318,-2.775,-3.272C-2.31,-2.463,-2.292,-1.573,-2.771,-1.324C-3.562,-0.913,-4.561,-0.867,-5.668,-1.202C-7.136,-1.645,-8.227,-0.76,-8.227,1.048C-8.227,1.048,-8.227,4.182,-8.227,4.182C-8.227,4.789,-7.797,5.53,-7.268,5.835C-7.268,5.835,7.269,14.228,7.269,14.228C7.798,14.533,8.227,14.288,8.227,13.681C8.227,13.681,8.227,10.548,8.227,10.548C8.227,8.741,7.136,6.595,5.668,5.345Z" fill="#ffffff" /></g><g id="i8" transform="matrix(1,0,0,1,552.629,282.629)"><g id="i2" fill="#1495ff"><path fill-rule="evenodd" d="" /></g><path d="M-13.75,8.174C-13.477,-1.846,-6.193,-5.829,2.742,-0.671C7.342,1.985,11.504,6.561,14.502,11.785C14.502,11.785,17.798,10.956,17.798,10.956C14.043,4.145,8.685,-1.863,2.742,-5.294C-8.502,-11.785,-17.661,-6.654,-17.799,6.133C-17.799,6.133,-13.75,8.174,-13.75,8.174Z" fill="#1495ff" /></g><g id="i9" transform="matrix(1,0,0,1,550.588,309.611)"><g id="i2" fill="#1495ff"><path fill-rule="evenodd" d="" /></g><path d="M13.065,12.456C10.627,12.679,7.803,11.999,4.784,10.256C-3.68,5.369,-10.667,-6.01,-11.616,-15.982C-11.616,-15.982,-15.649,-18.016,-15.649,-18.016C-14.566,-5.551,-5.816,8.759,4.784,14.879C8.771,17.181,12.495,18.016,15.649,17.572C15.649,17.572,13.065,12.456,13.065,12.456Z" fill="#1495ff" /></g><g id="i10" transform="matrix(1,0,0,1,570.789,311.665)"><g id="i2" fill="#1495ff"><path fill-rule="evenodd" d="" /></g><path d="M-2.096,-14.223C-0.095,-9.933,1.101,-5.391,1.101,-1.216C1.101,4.773,-1.338,8.704,-5.13,9.991C-5.13,9.991,-2.576,15.047,-2.576,15.047C2.118,13.432,5.131,8.539,5.131,1.11C5.131,-4.075,3.661,-9.718,1.18,-15.047C1.18,-15.047,-2.096,-14.223,-2.096,-14.223Z" fill="#1495ff" /></g><g id="i2" transform="matrix(1,0,0,1,555.375,300.405)"><g id="i2" fill="#1495ff"><path fill-rule="evenodd" d="" /></g><path d="M5.668,5.344C4.561,4.4,3.563,3.199,2.772,1.875C2.293,1.073,2.31,0.205,2.775,-0.066C3.378,-0.417,3.908,-0.976,4.254,-1.717C4.762,-1.577,5.392,-1.763,5.392,-2.46C5.392,-3.17,5.077,-3.942,4.658,-4.333C4.534,-7.372,3.495,-10.496,0,-12.514C-3.496,-14.533,-4.534,-12.607,-4.658,-9.712C-5.077,-9.804,-5.392,-9.395,-5.392,-8.685C-5.392,-7.989,-4.762,-7.075,-4.254,-6.629C-3.908,-5.489,-3.378,-4.318,-2.775,-3.272C-2.31,-2.463,-2.293,-1.573,-2.771,-1.324C-3.562,-0.913,-4.561,-0.867,-5.668,-1.201C-7.136,-1.645,-8.227,-0.76,-8.227,1.048C-8.227,1.048,-8.227,4.182,-8.227,4.182C-8.227,4.789,-7.798,5.531,-7.269,5.835C-7.269,5.835,7.268,14.228,7.268,14.228C7.797,14.533,8.227,14.288,8.227,13.681C8.227,13.681,8.227,10.547,8.227,10.547C8.227,8.74,7.136,6.594,5.668,5.344Z" fill="#1495ff" /></g></g></g></g><g id="i28"><g transform="translate(240.188,341.842)"><animateTransform repeatCount="indefinite" type="translate" attributeName="transform" dur="3s" begin="0s" calcMode="spline" values="240.188 341.842; 240.188 372.842; 240.188 341.842; 240.188 341.842" keyTimes="0; 0.5; 0.994444; 1" keySplines="0.167 0.167 0.667 1; 0.333 0 0.667 1; 0 0 1 1" fill="freeze" /><g transform="scale(1.667,1.667) translate(-406.913,-246.705)"><g id="i4" transform="matrix(1,0,0,1,459.723,277.252)"><path fill="#315b7d" d="M-2.394,-12.879C-2.394,-12.879,-2.394,15.669,-2.394,15.669C-2.394,15.669,2.394,13.038,2.394,13.038C2.394,13.038,2.394,-15.669,2.394,-15.669C2.394,-15.669,-2.394,-12.879,-2.394,-12.879Z" /></g><g id="i5" transform="matrix(1,0,0,1,404.53,248.072)"><path fill="#2d699a" d="M52.822,16.301C52.822,16.301,52.822,44.849,52.822,44.849C52.822,44.849,-52.822,-16.142,-52.822,-16.142C-52.822,-16.142,-52.822,-44.849,-52.822,-44.849C-52.822,-44.849,52.822,16.301,52.822,16.301Z" /></g><g id="i6" transform="matrix(1,0,0,1,406.913,232.431)"><path fill="#3f8ecf" d="M-55.204,-29.209C-55.204,-29.209,50.439,31.941,50.439,31.941C50.439,31.941,55.204,29.151,55.204,29.151C55.204,29.151,-50.478,-31.941,-50.478,-31.941C-50.478,-31.941,-55.204,-29.209,-55.204,-29.209Z" /></g><g id="i7" transform="matrix(1,0,0,1,406.913,233.798)"><g id="i2" fill="#ffffff"><path fill-rule="evenodd" d="" /></g><path d="M-55.204,-30.575C-55.204,-30.575,50.439,30.575,50.439,30.575C50.439,30.575,55.204,27.785,55.204,27.785C55.204,27.785,50.537,29.825,50.537,29.825C50.537,29.825,-55.204,-30.575,-55.204,-30.575Z" fill="#ffffff" /></g><g id="i8" transform="matrix(1,0,0,1,404.451,248.125)"><path fill="#ffffff" d="M47.53,36.15C47.53,36.15,-47.53,-19.329,-47.53,-19.329C-47.53,-19.329,-47.53,-36.15,-47.53,-36.15C-47.53,-36.15,47.53,19.33,47.53,19.33C47.53,19.33,47.53,36.15,47.53,36.15Z" /></g><g id="i9" transform="matrix(1,0,0,1,365.685,225.137)"><path fill="#462f6f" d="M-4.78,-8.408C-4.78,-8.408,-2.857,-7.298,-2.857,-7.298C-2.857,-7.298,-1.968,1.885,-1.968,1.885C-1.968,1.885,-1.932,1.906,-1.932,1.906C-1.932,1.906,-0.989,-6.218,-0.989,-6.218C-0.989,-6.218,1.187,-4.962,1.187,-4.962C1.187,-4.962,2.13,4.252,2.13,4.252C2.13,4.252,2.166,4.273,2.166,4.273C2.166,4.273,3.055,-3.883,3.055,-3.883C3.055,-3.883,4.779,-2.888,4.779,-2.888C4.779,-2.888,3.491,8.408,3.491,8.408C3.491,8.408,1.006,6.974,1.006,6.974C1.006,6.974,0.099,-0.845,0.099,-0.845C0.099,-0.845,0.063,-0.865,0.063,-0.865C0.063,-0.865,-0.844,5.906,-0.844,5.906C-0.844,5.906,-3.492,4.377,-3.492,4.377C-3.492,4.377,-4.78,-8.408,-4.78,-8.408Z" /></g><g id="i10" transform="matrix(1,0,0,1,377.064,231.752)"><path fill="#462f6f" d="M-4.779,-8.408C-4.779,-8.408,-2.856,-7.298,-2.856,-7.298C-2.856,-7.298,-1.967,1.885,-1.967,1.885C-1.967,1.885,-1.931,1.906,-1.931,1.906C-1.931,1.906,-0.988,-6.218,-0.988,-6.218C-0.988,-6.218,1.188,-4.962,1.188,-4.962C1.188,-4.962,2.131,4.252,2.131,4.252C2.131,4.252,2.167,4.273,2.167,4.273C2.167,4.273,3.056,-3.883,3.056,-3.883C3.056,-3.883,4.779,-2.888,4.779,-2.888C4.779,-2.888,3.492,8.408,3.492,8.408C3.492,8.408,1.006,6.974,1.006,6.974C1.006,6.974,0.1,-0.845,0.1,-0.845C0.1,-0.845,0.064,-0.865,0.064,-0.865C0.064,-0.865,-0.843,5.906,-0.843,5.906C-0.843,5.906,-3.492,4.377,-3.492,4.377C-3.492,4.377,-4.779,-8.408,-4.779,-8.408Z" /></g><g id="i2" transform="matrix(1,0,0,1,388.535,238.277)"><path fill="#462f6f" d="M-4.78,-8.408C-4.78,-8.408,-2.857,-7.298,-2.857,-7.298C-2.857,-7.298,-1.968,1.885,-1.968,1.885C-1.968,1.885,-1.932,1.906,-1.932,1.906C-1.932,1.906,-0.989,-6.219,-0.989,-6.219C-0.989,-6.219,1.188,-4.962,1.188,-4.962C1.188,-4.962,2.13,4.251,2.13,4.251C2.13,4.251,2.166,4.273,2.166,4.273C2.166,4.273,3.055,-3.884,3.055,-3.884C3.055,-3.884,4.779,-2.888,4.779,-2.888C4.779,-2.888,3.491,8.408,3.491,8.408C3.491,8.408,1.006,6.974,1.006,6.974C1.006,6.974,0.099,-0.845,0.099,-0.845C0.099,-0.845,0.063,-0.867,0.063,-0.867C0.063,-0.867,-0.844,5.906,-0.844,5.906C-0.844,5.906,-3.492,4.376,-3.492,4.376C-3.492,4.376,-4.78,-8.408,-4.78,-8.408Z" /></g></g></g></g><g transform="matrix(1.667,0,0,1.667,-438.002,-69.333)" id="i29"><g id="i4" transform="matrix(1,0,0,1,401.173,126.502)"><path fill="#008cff" d="M-1.501,-9.05C-1.501,-9.05,-1.501,10.858,-1.501,10.858C-1.501,10.858,1.501,9.204,1.501,9.204C1.501,9.204,1.501,-10.858,1.501,-10.858C1.501,-10.858,-1.501,-9.05,-1.501,-9.05Z" /></g><g id="i5" transform="matrix(1,0,0,1,390.833,122.209)"><path fill="#0f93ff" d="M8.861,-4.758C8.861,-4.758,8.861,15.15,8.861,15.15C8.861,15.15,-8.861,4.911,-8.861,4.911C-8.861,4.911,-8.861,-15.15,-8.861,-15.15C-8.861,-15.15,8.861,-4.758,8.861,-4.758Z" /></g><g id="i6" transform="matrix(1,0,0,1,392.324,111.379)"><path fill="#1495ff" d="M-10.351,-4.32C-10.351,-4.32,7.371,6.073,7.371,6.073C7.371,6.073,10.351,4.265,10.351,4.265C10.351,4.265,-7.41,-6.073,-7.41,-6.073C-7.41,-6.073,-10.351,-4.32,-10.351,-4.32Z" /></g><g id="i7" transform="matrix(1,0,0,1,392.324,112.255)"><path fill="#ffffff" d="M-10.351,-5.197C-10.351,-5.197,7.371,5.197,7.371,5.197C7.371,5.197,10.351,3.389,10.351,3.389C10.351,3.389,7.22,4.238,7.22,4.238C7.22,4.238,-10.351,-5.197,-10.351,-5.197Z" /></g><g id="i8" transform="matrix(1,0,0,1,417.686,125.466)"><path fill="#2e8ad6" d="M-2.431,-14.655C-2.431,-14.655,-2.431,17.582,-2.431,17.582C-2.431,17.582,2.431,14.905,2.431,14.905C2.431,14.905,2.431,-17.582,2.431,-17.582C2.431,-17.582,-2.431,-14.655,-2.431,-14.655Z" /></g><g id="i9" transform="matrix(1,0,0,1,403.355,100.977)"><path fill="#5fb2f7" d="M-16.761,-6.995C-16.761,-6.995,11.936,9.835,11.936,9.835C11.936,9.835,16.762,6.906,16.762,6.906C16.762,6.906,-11.997,-9.835,-11.997,-9.835C-11.997,-9.835,-16.761,-6.995,-16.761,-6.995Z" /></g><g id="i10" transform="matrix(1,0,0,1,403.355,102.397)"><g id="i2" fill="#ffffff"><path fill-rule="evenodd" d="" /></g><path d="M-16.762,-8.415C-16.762,-8.415,11.935,8.415,11.935,8.415C11.935,8.415,16.761,5.486,16.761,5.486C16.761,5.486,12.065,7.723,12.065,7.723C12.065,7.723,-16.762,-8.415,-16.762,-8.415Z" fill="#ffffff" /></g><g id="i2" transform="matrix(1,0,0,1,400.942,118.515)"><path fill="#46a1ec" d="M-14.349,-24.533C-14.349,-24.533,-14.349,-11.163,-14.349,-11.163C-14.349,-11.163,0.839,-2.256,0.839,-2.256C0.839,-2.256,0.839,16.728,0.839,16.728C0.839,16.728,14.348,24.533,14.348,24.533C14.348,24.533,14.348,-7.704,14.348,-7.704C14.348,-7.704,-14.349,-24.533,-14.349,-24.533Z" /></g></g><g id="i30"><g transform="translate(342.63,252.32)"><animateTransform repeatCount="indefinite" type="translate" attributeName="transform" dur="3s" begin="0s" calcMode="spline" values="342.63 252.32; 328.13 265.32; 342.63 252.32; 342.63 252.32" keyTimes="0; 0.166667; 0.333333; 1" keySplines="0.167 0.167 0.667 1; 0.333 0 0.667 1; 0 0 1 1" fill="freeze" /><g transform="scale(1.667,1.667)"><animateTransform repeatCount="indefinite" type="scale" attributeName="transform" dur="3s" begin="0s" calcMode="spline" values="1.667 1.667; 1.987 1.987; 1.667 1.667; 1.667 1.667" keyTimes="0; 0.166667; 0.333333; 1" keySplines="0.167 0.167 0.667 1; 0.333 0 0.833 0.833; 0 0 1 1" fill="freeze" /><g transform="translate(-468.378,-192.992)"><g id="i6" transform="matrix(1,0,0,1,478.272,198.771)"><path fill="#315b7d" d="M-2.642,-9.989C-2.642,-9.989,-1.678,12.139,-1.678,12.139C-1.678,12.139,1.678,10.29,1.678,10.29C1.678,10.29,1.678,-12.139,1.678,-12.139C1.678,-12.139,-2.642,-9.989,-2.642,-9.989Z" /></g><g id="i7" transform="matrix(1,0,0,1,466.712,193.972)"><path fill="#2d699a" d="M9.906,-5.319C9.906,-5.319,9.906,16.938,9.906,16.938C9.906,16.938,-9.906,5.492,-9.906,5.492C-9.906,5.492,-9.906,-16.938,-9.906,-16.938C-9.906,-16.938,9.906,-5.319,9.906,-5.319Z" /></g><g id="i8" transform="matrix(1,0,0,1,468.378,181.864)"><path fill="#3f8ecf" d="M-11.572,-4.829C-11.572,-4.829,8.24,6.79,8.24,6.79C8.24,6.79,11.573,4.768,11.573,4.768C11.573,4.768,-8.284,-6.789,-8.284,-6.789C-8.284,-6.789,-11.572,-4.829,-11.572,-4.829Z" /></g><g id="i9" transform="matrix(1,0,0,1,468.378,182.844)"><g id="i2" fill="#ffffff"><path fill-rule="evenodd" d="" /></g><path d="M-11.573,-5.81C-11.573,-5.81,8.239,5.809,8.239,5.809C8.239,5.809,11.572,3.787,11.572,3.787C11.572,3.787,8.072,4.737,8.072,4.737C8.072,4.737,-11.573,-5.81,-11.573,-5.81Z" fill="#ffffff" /></g><g id="i10" transform="matrix(1,0,0,1,466.855,190.838)"><g id="i2" fill="#ffffff"><path fill-rule="evenodd" d="" /></g><path d="M-6.377,-4.952C-6.377,-4.952,0,5.014,0,5.014C0,5.014,6.377,2.413,6.377,2.413C6.379,2.416,6.381,2.418,6.383,2.421C6.172,2.114,5.911,1.849,5.625,1.684C5.625,1.684,-5.626,-4.813,-5.626,-4.813C-5.912,-4.978,-6.172,-5.013,-6.383,-4.949C-6.381,-4.95,-6.379,-4.951,-6.377,-4.952Z" fill="#ffffff" /></g><g id="i2" transform="matrix(1,0,0,1,466.855,194.652)"><g id="i2" fill="#ffffff"><path fill-rule="evenodd" d="" /></g><path d="M6.397,-1.372C6.397,-1.372,0,2.275,0,2.275C0,2.275,-1.811,-0.849,-1.811,-0.849C-1.811,-0.849,-6.377,1.014,-6.377,1.014C-6.384,1.004,-6.391,0.994,-6.397,0.984C-6.397,0.984,-2.151,-1.436,-2.151,-1.436C-2.151,-1.436,-6.396,-8.758,-6.396,-8.758C-6.686,-8.662,-6.876,-8.371,-6.876,-7.914C-6.876,-7.914,-6.876,-0.293,-6.876,-0.293C-6.876,0.499,-6.316,1.464,-5.626,1.863C-5.626,1.863,5.625,8.358,5.625,8.358C6.315,8.758,6.876,8.439,6.876,7.646C6.876,7.646,6.876,0.025,6.876,0.025C6.876,-0.431,6.687,-0.942,6.397,-1.372Z" fill="#ffffff" /><path d="M6.377,8.377C6.377,8.377,1.811,1.242,1.811,1.242C1.811,1.242,2.151,1.048,2.151,1.048C2.151,1.048,6.397,8.37,6.397,8.37C6.39,8.372,6.384,8.375,6.377,8.377Z" fill="#ffffff" /></g></g></g></g></g><g id="i31"><g transform="translate(385.964,277.321)"><animateTransform repeatCount="indefinite" type="translate" attributeName="transform" dur="3s" begin="0s" calcMode="spline" values="385.964 277.321; 385.964 277.321; 371.464 290.321; 385.964 277.321; 385.964 277.321" keyTimes="0; 0.166667; 0.333333; 0.5; 1" keySplines="0 0 1 1; 0.167 0.167 0.667 1; 0.333 0 0.667 1; 0 0 1 1" fill="freeze" /><g transform="scale(1.667,1.667)"><animateTransform repeatCount="indefinite" type="scale" attributeName="transform" dur="3s" begin="0s" calcMode="spline" values="1.667 1.667; 1.667 1.667; 1.987 1.987; 1.667 1.667; 1.667 1.667" keyTimes="0; 0.166667; 0.333333; 0.5; 1" keySplines="0 0 1 1; 0.167 0.167 0.667 1; 0.333 0 0.833 0.833; 0 0 1 1" fill="freeze" /><g transform="translate(-494.378,-207.993)"><g id="i7" transform="matrix(1,0,0,1,504.272,213.771)"><path fill="#315b7d" d="M-3.778,-9.743C-3.778,-9.743,-1.678,12.139,-1.678,12.139C-1.678,12.139,1.678,10.289,1.678,10.289C1.678,10.289,1.678,-12.139,1.678,-12.139C1.678,-12.139,-3.778,-9.743,-3.778,-9.743Z" /></g><g id="i8" transform="matrix(1,0,0,1,492.712,208.972)"><path fill="#2d699a" d="M9.906,-5.319C9.906,-5.319,9.906,16.938,9.906,16.938C9.906,16.938,-9.906,5.492,-9.906,5.492C-9.906,5.492,-9.906,-16.938,-9.906,-16.938C-9.906,-16.938,9.906,-5.319,9.906,-5.319Z" /></g><g id="i9" transform="matrix(1,0,0,1,494.378,196.864)"><path fill="#3f8ecf" d="M-11.572,-4.829C-11.572,-4.829,8.24,6.79,8.24,6.79C8.24,6.79,11.573,4.768,11.573,4.768C11.573,4.768,-8.284,-6.789,-8.284,-6.789C-8.284,-6.789,-11.572,-4.829,-11.572,-4.829Z" /></g><g id="i10" transform="matrix(1,0,0,1,494.378,197.844)"><g id="i2" fill="#ffffff"><path fill-rule="evenodd" d="" /></g><path d="M-11.573,-5.81C-11.573,-5.81,8.239,5.809,8.239,5.809C8.239,5.809,11.572,3.787,11.572,3.787C11.572,3.787,8.072,4.736,8.072,4.736C8.072,4.736,-11.573,-5.81,-11.573,-5.81Z" fill="#ffffff" /></g><g id="i2" transform="matrix(1,0,0,1,492.909,209.351)"><g id="i2" fill="#ffffff"><path fill-rule="evenodd" d="" /></g><path d="M4.971,2.87C4.971,2.572,4.946,2.268,4.908,1.96C4.908,1.96,6.424,1.77,6.424,1.77C6.27,1.006,6.037,0.233,5.737,-0.527C5.737,-0.527,4.008,-1.051,4.008,-1.051C3.706,-1.697,3.344,-2.323,2.932,-2.907C2.932,-2.907,3.346,-4.65,3.346,-4.65C2.834,-5.29,2.278,-5.879,1.69,-6.396C1.69,-6.396,0.76,-5.191,0.76,-5.191C0.512,-5.379,0.26,-5.555,0,-5.704C-0.259,-5.854,-0.512,-5.971,-0.76,-6.07C-0.76,-6.07,-1.69,-8.349,-1.69,-8.349C-2.278,-8.511,-2.834,-8.563,-3.346,-8.516C-3.346,-8.516,-2.932,-6.293,-2.932,-6.293C-3.344,-6.185,-3.707,-5.978,-4.009,-5.68C-4.009,-5.68,-5.737,-7.152,-5.737,-7.152C-6.037,-6.737,-6.27,-6.235,-6.424,-5.65C-6.424,-5.65,-4.908,-3.706,-4.908,-3.706C-4.946,-3.443,-4.971,-3.167,-4.971,-2.87C-4.971,-2.572,-4.946,-2.269,-4.908,-1.961C-4.908,-1.961,-6.424,-1.77,-6.424,-1.77C-6.27,-1.006,-6.037,-0.233,-5.737,0.527C-5.737,0.527,-4.009,1.051,-4.009,1.051C-3.707,1.697,-3.344,2.322,-2.932,2.906C-2.932,2.906,-3.346,4.65,-3.346,4.65C-2.834,5.29,-2.278,5.879,-1.69,6.395C-1.69,6.395,-0.76,5.191,-0.76,5.191C-0.512,5.379,-0.259,5.555,0,5.704C0.26,5.854,0.512,5.971,0.76,6.07C0.76,6.07,1.69,8.348,1.69,8.348C2.278,8.51,2.834,8.563,3.346,8.516C3.346,8.516,2.932,6.292,2.932,6.292C3.344,6.184,3.706,5.977,4.008,5.679C4.008,5.679,5.737,7.151,5.737,7.151C6.037,6.737,6.27,6.234,6.424,5.649C6.424,5.649,4.908,3.705,4.908,3.705C4.946,3.442,4.971,3.167,4.971,2.87Z" fill="#ffffff" /><path d="M0,2.291C-1.103,1.654,-1.996,0.113,-1.996,-1.152C-1.996,-2.418,-1.103,-2.929,0,-2.292C1.104,-1.655,1.996,-0.113,1.996,1.152C1.996,2.418,1.104,2.928,0,2.291Z" fill="#ffffff" /></g></g></g></g></g><g id="i32"><g transform="translate(429.02,302.042)"><animateTransform repeatCount="indefinite" type="translate" attributeName="transform" dur="3s" begin="0s" calcMode="spline" values="429.02 302.042; 429.02 302.042; 414.52 315.042; 429.02 302.042; 429.02 302.042" keyTimes="0; 0.333333; 0.5; 0.666667; 1" keySplines="0 0 1 1; 0.167 0.167 0.667 1; 0.333 0 0.667 1; 0 0 1 1" fill="freeze" /><g transform="scale(1.667,1.667)"><animateTransform repeatCount="indefinite" type="scale" attributeName="transform" dur="3s" begin="0s" calcMode="spline" values="1.667 1.667; 1.667 1.667; 1.987 1.987; 1.667 1.667; 1.667 1.667" keyTimes="0; 0.333333; 0.5; 0.666667; 1" keySplines="0 0 1 1; 0.167 0.167 0.667 1; 0.333 0 0.833 0.833; 0 0 1 1" fill="freeze" /><g transform="translate(-520.212,-222.825)"><g id="i7" transform="matrix(1,0,0,1,530.105,228.605)"><path fill="#315b7d" d="M-4.454,-9.893C-4.454,-9.893,-1.679,12.139,-1.679,12.139C-1.679,12.139,1.678,10.29,1.678,10.29C1.678,10.29,1.678,-12.139,1.678,-12.139C1.678,-12.139,-4.454,-9.893,-4.454,-9.893Z" /></g><g id="i8" transform="matrix(1,0,0,1,518.546,223.806)"><path fill="#2d699a" d="M9.906,-5.319C9.906,-5.319,9.906,16.938,9.906,16.938C9.906,16.938,-9.906,5.492,-9.906,5.492C-9.906,5.492,-9.906,-16.938,-9.906,-16.938C-9.906,-16.938,9.906,-5.319,9.906,-5.319Z" /></g><g id="i9" transform="matrix(1,0,0,1,520.212,211.697)"><path fill="#3f8ecf" d="M-11.572,-4.829C-11.572,-4.829,8.24,6.79,8.24,6.79C8.24,6.79,11.573,4.769,11.573,4.769C11.573,4.769,-8.284,-6.79,-8.284,-6.79C-8.284,-6.79,-11.572,-4.829,-11.572,-4.829Z" /></g><g id="i10" transform="matrix(1,0,0,1,520.212,212.678)"><g id="i2" fill="#ffffff"><path fill-rule="evenodd" d="" /></g><path d="M-11.572,-5.809C-11.572,-5.809,8.24,5.81,8.24,5.81C8.24,5.81,11.573,3.789,11.573,3.789C11.573,3.789,8.073,4.738,8.073,4.738C8.073,4.738,-11.572,-5.809,-11.572,-5.809Z" fill="#ffffff" /></g><g id="i2" transform="matrix(1,0,0,1,518.909,224.531)"><g id="i2" fill="#ffffff"><path fill-rule="evenodd" d="" /></g><path d="M3.587,3.382C2.887,2.784,2.255,2.026,1.754,1.188C1.451,0.68,1.462,0.129,1.757,-0.042C2.138,-0.264,2.474,-0.617,2.692,-1.086C3.014,-0.997,3.411,-1.115,3.411,-1.555C3.411,-2.006,3.214,-2.495,2.948,-2.742C2.869,-4.665,2.213,-6.641,0,-7.919C-2.212,-9.196,-2.869,-7.978,-2.948,-6.145C-3.214,-6.205,-3.411,-5.945,-3.411,-5.495C-3.411,-5.055,-3.013,-4.476,-2.691,-4.194C-2.473,-3.473,-2.137,-2.732,-1.756,-2.07C-1.461,-1.558,-1.45,-0.996,-1.753,-0.838C-2.254,-0.578,-2.886,-0.548,-3.586,-0.76C-4.515,-1.041,-5.206,-0.48,-5.206,0.663C-5.206,0.663,-5.206,2.647,-5.206,2.647C-5.206,3.03,-4.934,3.499,-4.599,3.693C-4.599,3.693,4.599,9.003,4.599,9.003C4.934,9.196,5.206,9.042,5.206,8.657C5.206,8.657,5.206,6.674,5.206,6.674C5.206,5.53,4.516,4.173,3.587,3.382Z" fill="#ffffff" /></g></g></g></g></g><g id="i33"><g transform="translate(471.52,326.209)"><animateTransform repeatCount="indefinite" type="translate" attributeName="transform" dur="3s" begin="0s" calcMode="spline" values="471.52 326.209; 471.52 326.209; 457.02 339.209; 471.52 326.209; 471.52 326.209" keyTimes="0; 0.5; 0.666667; 0.833333; 1" keySplines="0 0 1 1; 0.167 0.167 0.667 1; 0.333 0 0.667 1; 0 0 1 1" fill="freeze" /><g transform="scale(1.667,1.667)"><animateTransform repeatCount="indefinite" type="scale" attributeName="transform" dur="3s" begin="0s" calcMode="spline" values="1.667 1.667; 1.667 1.667; 1.987 1.987; 1.667 1.667; 1.667 1.667" keyTimes="0; 0.5; 0.666667; 0.833333; 1" keySplines="0 0 1 1; 0.167 0.167 0.667 1; 0.333 0 0.833 0.833; 0 0 1 1" fill="freeze" /><g transform="translate(-545.712,-237.325)"><g id="i7" transform="matrix(1,0,0,1,555.605,243.105)"><path fill="#315b7d" d="M-3.629,-10.268C-3.629,-10.268,-1.679,12.139,-1.679,12.139C-1.679,12.139,1.678,10.29,1.678,10.29C1.678,10.29,1.678,-12.139,1.678,-12.139C1.678,-12.139,-3.629,-10.268,-3.629,-10.268Z" /></g><g id="i8" transform="matrix(1,0,0,1,544.046,238.306)"><path fill="#2d699a" d="M9.906,-5.319C9.906,-5.319,9.906,16.938,9.906,16.938C9.906,16.938,-9.906,5.492,-9.906,5.492C-9.906,5.492,-9.906,-16.938,-9.906,-16.938C-9.906,-16.938,9.906,-5.319,9.906,-5.319Z" /></g><g id="i9" transform="matrix(1,0,0,1,545.712,226.197)"><path fill="#3f8ecf" d="M-11.572,-4.829C-11.572,-4.829,8.24,6.79,8.24,6.79C8.24,6.79,11.573,4.769,11.573,4.769C11.573,4.769,-8.284,-6.79,-8.284,-6.79C-8.284,-6.79,-11.572,-4.829,-11.572,-4.829Z" /></g><g id="i10" transform="matrix(1,0,0,1,545.712,227.178)"><path fill="#ffffff" d="M-11.572,-5.809C-11.572,-5.809,8.24,5.81,8.24,5.81C8.24,5.81,11.573,3.789,11.573,3.789C11.573,3.789,8.073,4.738,8.073,4.738C8.073,4.738,-11.572,-5.809,-11.572,-5.809Z" /></g><g id="i2" transform="matrix(1,0,0,1,544.409,241.351)"><path fill="#ffffff" d="M-6.69,0.878C-6.69,0.878,-3.479,2.733,-3.479,2.733C-3.479,2.733,-3.479,-3.025,-3.479,-3.025C-3.479,-3.025,-6.69,-4.878,-6.69,-4.878C-6.69,-4.878,-6.69,0.878,-6.69,0.878ZM-1.606,3.814C-1.606,3.814,1.606,5.668,1.606,5.668C1.606,5.668,1.606,-4.887,1.606,-4.887C1.606,-4.887,-1.606,-6.741,-1.606,-6.741C-1.606,-6.741,-1.606,3.814,-1.606,3.814ZM3.479,-8.603C3.479,-8.603,3.479,6.75,3.479,6.75C3.479,6.75,6.69,8.603,6.69,8.603C6.69,8.603,6.69,-6.749,6.69,-6.749C6.69,-6.749,3.479,-8.603,3.479,-8.603Z" /></g></g></g></g></g><g id="i34"><g transform="translate(129.916,338.106)"><animateTransform repeatCount="indefinite" type="translate" attributeName="transform" dur="3s" begin="0s" calcMode="spline" values="129.916 338.106; 114.916 346.106; 129.916 338.106; 129.916 338.106" keyTimes="0; 0.5; 0.994444; 1" keySplines="0 0 1 1; 0 0 1 1; 0 0 1 1" fill="freeze" /><g transform="scale(1.667,1.667) translate(-340.75,-244.463)"><g id="i4" transform="matrix(1,0,0,1,379.071,266.639)"><path fill="#8746ff" d="M-2.254,-12.912C-2.254,-12.912,-2.254,15.636,-2.254,15.636C-2.254,15.636,2.254,13.071,2.254,13.071C2.254,13.071,2.254,-15.636,2.254,-15.636C2.254,-15.636,-2.254,-12.912,-2.254,-12.912Z" /></g><g id="i5" transform="matrix(1,0,0,1,338.507,245.797)"><path fill="#3e8ed0" d="M38.334,7.93C38.334,7.93,38.334,36.479,38.334,36.479C38.334,36.479,-38.333,-7.771,-38.333,-7.771C-38.333,-7.771,-38.333,-36.479,-38.333,-36.479C-38.333,-36.479,38.334,7.93,38.334,7.93Z" /></g><g id="i6" transform="matrix(1,0,0,1,340.749,230.189)"><path fill="#a1adb7" d="M-40.576,-20.871C-40.576,-20.871,36.091,23.538,36.091,23.538C36.091,23.538,40.576,20.815,40.576,20.815C40.576,20.815,-36.131,-23.538,-36.131,-23.538C-36.131,-23.538,-40.576,-20.871,-40.576,-20.871Z" /></g><g id="i7" transform="matrix(1,0,0,1,340.749,231.523)"><path fill="#ffffff" d="M-40.576,-22.204C-40.576,-22.204,36.091,22.205,36.091,22.205C36.091,22.205,40.575,19.482,40.575,19.482C40.575,19.482,35.908,21.356,35.908,21.356C35.908,21.356,-40.576,-22.204,-40.576,-22.204Z" /></g><g id="i8" transform="matrix(1,0,0,1,318.752,235.095)"><path fill="#ffffff" d="M11.048,-3.954C11.048,-3.954,-2.969,-12.046,-2.969,-12.046C-3.829,-12.542,-4.525,-12.146,-4.525,-11.159C-4.525,-11.159,-4.525,-1.665,-4.525,-1.665C-4.525,-0.679,-3.829,0.523,-2.969,1.02C-2.969,1.02,5.792,6.079,5.792,6.079C5.792,6.079,10.172,13.633,10.172,13.633C10.172,13.633,10.172,8.607,10.172,8.607C10.172,8.607,11.048,9.113,11.048,9.113C11.908,9.61,12.604,9.213,12.604,8.225C12.604,8.225,12.604,-1.268,12.604,-1.268C12.604,-2.255,11.908,-3.457,11.048,-3.954ZM1.167,-2.178C0.711,-1.918,-0.029,-2.345,-0.486,-3.132C-0.942,-3.918,-0.942,-4.766,-0.486,-5.027C-0.029,-5.286,0.711,-4.86,1.167,-4.072C1.623,-3.285,1.623,-2.439,1.167,-2.178ZM4.962,0.014C4.506,0.273,3.767,-0.153,3.311,-0.941C2.855,-1.727,2.855,-2.575,3.311,-2.835C3.767,-3.096,4.506,-2.669,4.962,-1.882C5.418,-1.095,5.418,-0.246,4.962,0.014ZM8.759,2.206C8.303,2.466,7.563,2.039,7.107,1.253C6.651,0.466,6.651,-0.383,7.107,-0.643C7.563,-0.903,8.303,-0.477,8.759,0.309C9.215,1.097,9.215,1.946,8.759,2.206ZM-5.693,-2.34C-5.693,-2.34,-5.693,-10.046,-5.693,-10.046C-5.693,-10.046,-11.047,-13.137,-11.047,-13.137C-11.906,-13.634,-12.604,-13.236,-12.604,-12.249C-12.604,-12.249,-12.604,-2.755,-12.604,-2.755C-12.604,-1.768,-11.906,-0.566,-11.047,-0.068C-11.047,-0.068,-10.172,0.436,-10.172,0.436C-10.172,0.436,-10.172,5.462,-10.172,5.462C-10.172,5.462,-5.792,2.965,-5.792,2.965C-5.792,2.965,2.969,8.023,2.969,8.023C3.829,8.519,4.526,8.121,4.526,7.135C4.526,7.135,4.526,6.688,4.526,6.688C4.526,6.688,-2.969,2.361,-2.969,2.361C-4.471,1.494,-5.693,-0.616,-5.693,-2.34Z" /></g><g id="i9" transform="matrix(1,0,0,1,352.861,247.675)"><path fill="#ffffff" d="M-18.313,-11.759C-18.313,-11.759,-18.313,-9.389,-18.313,-9.389C-18.313,-9.389,18.313,11.759,18.313,11.759C18.313,11.759,18.313,9.388,18.313,9.388C18.313,9.388,-18.313,-11.759,-18.313,-11.759Z" /></g><g id="i10" transform="matrix(1,0,0,1,347.069,254.187)"><path fill="#ffffff" d="M12.522,6.051C12.522,6.051,-12.521,-8.421,-12.521,-8.421C-12.521,-8.421,-12.521,-6.051,-12.521,-6.051C-12.521,-6.051,12.522,8.421,12.522,8.421C12.522,8.421,12.522,6.051,12.522,6.051Z" /></g><g id="i2" transform="matrix(1,0,0,1,352.861,252.599)"><path fill="#ffffff" d="M-18.313,-9.389C-18.313,-9.389,18.313,11.758,18.313,11.758C18.313,11.758,18.313,9.389,18.313,9.389C18.313,9.389,-18.313,-11.758,-18.313,-11.758C-18.313,-11.758,-18.313,-9.389,-18.313,-9.389Z" /></g></g></g></g><g id="i35"><g transform="translate(206.192,353.998)"><animateTransform repeatCount="indefinite" type="translate" attributeName="transform" dur="3s" begin="0s" calcMode="spline" values="206.192 353.998; 213.378 336.47; 195.192 325.998; 188.937 346.12; 206.192 353.998; 206.192 353.998" keyTimes="0; 0.238888; 0.5; 0.755556; 0.994444; 1" keySplines="0 0 1 1; 0 0 1 1; 0 0 1 1; 0 0 1 1; 0 0 1 1" fill="freeze" /><g transform="scale(1.667,1.667) translate(-386.515,-253.999)"><g id="i4" transform="matrix(1,0,0,1,423.029,313.361)"><g id="i2" fill="#000000"><path fill-rule="evenodd" d="" /></g><path d="M4.797,-2.585C6.225,0.064,5.234,3.369,2.585,4.797C-0.064,6.225,-3.371,5.234,-4.798,2.585C-6.225,-0.064,-5.235,-3.369,-2.586,-4.797C0.064,-6.225,3.369,-5.234,4.797,-2.585Z" fill="#000000" /></g><g id="i5" transform="matrix(1,0,0,1,414.006,296.951)"><g id="i2" fill="#462f6f"><path fill-rule="evenodd" d="" /></g><path d="M-3.424,-20.44C-3.424,-20.44,-15.222,-14.083,-15.222,-14.083C-15.222,-14.083,2.377,18.382,2.377,18.382C2.377,18.382,2.379,18.381,2.379,18.381C2.387,18.397,2.393,18.414,2.402,18.429C3.425,20.327,6.893,20.441,10.151,18.686C13.409,16.93,15.222,13.969,14.199,12.073C14.191,12.056,14.18,12.041,14.172,12.026C14.172,12.026,14.174,12.025,14.174,12.025C14.174,12.025,-3.424,-20.44,-3.424,-20.44Z" fill="#462f6f" /></g><g id="i6" transform="matrix(1,0,0,1,404.696,279.713)"><g id="i2" fill="#8746ff"><path fill-rule="evenodd" d="" /></g><path d="M5.899,-3.178C6.921,-1.281,5.109,1.679,1.851,3.435C-1.407,5.19,-4.876,5.075,-5.899,3.178C-6.92,1.281,-5.109,-1.68,-1.851,-3.435C1.407,-5.191,4.877,-5.074,5.899,-3.178Z" fill="#8746ff" /></g><g id="i7" transform="matrix(1,0,0,1,402.154,275.031)"><g id="i2" fill="#000000"><path fill-rule="evenodd" d="" /></g><path d="M0.702,-7.133C0.702,-7.133,-6.315,-3.352,-6.315,-3.352C-6.315,-3.352,-1.325,5.908,-1.325,5.908C-1.325,5.908,-1.324,5.908,-1.324,5.908C-1.319,5.918,-1.316,5.927,-1.31,5.935C-0.702,7.064,1.362,7.134,3.3,6.09C5.237,5.045,6.315,3.284,5.707,2.155C5.702,2.146,5.696,2.138,5.69,2.128C5.69,2.128,5.692,2.128,5.692,2.128C5.692,2.128,0.702,-7.133,0.702,-7.133Z" fill="#000000" /></g><g id="i8" transform="matrix(1,0,0,1,383.531,230.774)"><g id="i2" fill="#a1adb7"><path fill-rule="evenodd" d="" /></g><path d="M-0.484,-37.309C-9.221,-42.353,-17.144,-42.931,-22.941,-39.792C-23.104,-39.704,-31.423,-35.061,-31.685,-34.66C-25.786,-39.11,-17.052,-39.042,-7.306,-33.415C10.46,-23.158,24.864,1.685,24.864,22.073C24.864,32.475,21.113,39.705,15.079,42.931C15.512,42.812,16.023,42.591,16.65,42.242C16.821,42.145,22.494,38.708,22.662,38.605C28.248,35.191,31.685,28.137,31.685,18.178C31.685,-2.208,17.283,-27.051,-0.484,-37.309Z" fill="#a1adb7" /></g><g id="i9" transform="matrix(1,0,0,1,376.225,234.273)"><g id="i2" fill="#d9e0e6"><path fill-rule="evenodd" d="" /></g><path d="M0,-36.914C-17.766,-47.172,-32.169,-38.96,-32.169,-18.573C-32.169,1.814,-17.766,26.656,0,36.914C17.767,47.172,32.169,38.96,32.169,18.573C32.169,-1.814,17.767,-26.657,0,-36.914Z" fill="#d9e0e6" /><path d="M-0.482,32.046C-15.559,23.342,-27.781,2.26,-27.781,-15.041C-27.781,-32.341,-15.559,-39.309,-0.482,-30.604C14.595,-21.9,26.816,-0.818,26.816,16.482C26.816,33.782,14.595,40.75,-0.482,32.046Z" fill="#d9e0e6" /></g><g id="i10" transform="matrix(1,0,0,1,373.009,235.95)"><g id="i2" fill="#a1adb7"><path fill-rule="evenodd" d="" /></g><path d="M8.384,27.211C-6.693,18.507,-18.915,-2.574,-18.915,-19.875C-18.915,-26.933,-16.88,-32.268,-13.448,-35.524C-20.189,-33.713,-24.565,-27.066,-24.565,-16.718C-24.565,0.583,-12.345,21.665,2.733,30.369C11.659,35.523,19.583,35.181,24.565,30.454C20.036,31.672,14.443,30.709,8.384,27.211Z" fill="#a1adb7" /></g><g id="i2" transform="matrix(1,0,0,1,382.849,233.187)"><g id="i2" fill="#ffffff"><path fill-rule="evenodd" d="" /></g><path d="M-5.08,-36.601C-13.597,-41.518,-21.335,-42.181,-27.09,-39.303C-21.726,-40.804,-13.834,-39.992,-6.624,-35.829C11.143,-25.572,25.546,-0.729,25.546,19.659C25.546,30.273,20.401,37.885,14.15,41.011C22.005,38.814,27.09,31,27.09,18.886C27.09,-1.5,12.687,-26.343,-5.08,-36.601Z" fill="#ffffff" /></g></g></g></g></svg>